<svg width="136" height="32" viewBox="0 0 136 32" fill="none" xmlns="http://www.w3.org/2000/svg">
<path d="M118 0H119.604C125.155 0 129.643 4.52076 129.604 10.0714L129.517 22.288C129.51 23.2617 129.655 24.2305 129.949 25.159V25.159C130.508 26.9316 131.585 28.4963 133.041 29.6518L136 32H118V0Z" fill="white"/>
<rect x="18" width="100" height="32" fill="white"/>
<path d="M18 0H16.3959C10.8452 0 6.35658 4.52076 6.39619 10.0714L6.48337 22.288C6.49032 23.2617 6.34458 24.2305 6.05146 25.159V25.159C5.49189 26.9316 4.41484 28.4963 2.95883 29.6518L-2.98023e-07 32H18V0Z" fill="white"/>
</svg>
