<svg xmlns="http://www.w3.org/2000/svg" version="1.1" xmlns:xlink="http://www.w3.org/1999/xlink" xmlns:svgjs="http://svgjs.dev/svgjs" width="1920" height="1080" preserveAspectRatio="none" viewBox="0 0 1920 1080"><g mask="url(&quot;#SvgjsMask1018&quot;)" fill="none"><rect width="1920" height="1080" x="0" y="0" fill="url(&quot;#SvgjsLinearGradient1019&quot;)"></rect><path d="M1920 0L1898.06 0L1920 305.48z" fill="rgba(255, 255, 255, .1)"></path><path d="M1898.06 0L1920 305.48L1920 357.21000000000004L1511 0z" fill="rgba(255, 255, 255, .075)"></path><path d="M1511 0L1920 357.21000000000004L1920 561.1700000000001L574.39 0z" fill="rgba(255, 255, 255, .05)"></path><path d="M574.3899999999999 0L1920 561.1700000000001L1920 814.2L177.6199999999999 0z" fill="rgba(255, 255, 255, .025)"></path><path d="M0 1080L639.66 1080L0 822.0899999999999z" fill="rgba(0, 0, 0, .1)"></path><path d="M0 822.0899999999999L639.66 1080L1043.07 1080L0 446.2899999999999z" fill="rgba(0, 0, 0, .075)"></path><path d="M0 446.28999999999996L1043.07 1080L1227.82 1080L0 317.93999999999994z" fill="rgba(0, 0, 0, .05)"></path><path d="M0 317.93999999999994L1227.82 1080L1693.52 1080L0 92.84999999999994z" fill="rgba(0, 0, 0, .025)"></path></g><defs><mask id="SvgjsMask1018"><rect width="1920" height="1080" fill="#ffffff"></rect></mask><linearGradient x1="10.94%" y1="-19.44%" x2="89.06%" y2="119.44%" gradientUnits="userSpaceOnUse" id="SvgjsLinearGradient1019"><stop stop-color="#0e2a47" offset="0"></stop><stop stop-color="#00459e" offset="1"></stop></linearGradient></defs></svg>