<svg xmlns="http://www.w3.org/2000/svg" version="1.1" xmlns:xlink="http://www.w3.org/1999/xlink" xmlns:svgjs="http://svgjs.dev/svgjs" width="1920" height="1080" preserveAspectRatio="none" viewBox="0 0 1920 1080"><g mask="url(&quot;#SvgjsMask1244&quot;)" fill="none"><rect width="1920" height="1080" x="0" y="0" fill="rgba(29, 124, 222, 1)"></rect><path d="M13.64 -15.95L56.94 9.05L56.94 59.05L13.64 84.05L-29.66 59.05L-29.66 9.05zM56.94 59.05L100.25 84.05L100.25 134.05L56.94 159.05L13.64 134.05L13.64 84.05zM13.64 284.05L56.94 309.05L56.94 359.05L13.64 384.05L-29.66 359.05L-29.66 309.05zM56.94 359.05L100.25 384.05L100.25 434.05L56.94 459.05L13.64 434.05L13.64 384.05zM56.94 659.05L100.25 684.05L100.25 734.05L56.94 759.05L13.64 734.05L13.64 684.05zM13.64 734.05L56.94 759.05L56.94 809.05L13.64 834.05L-29.66 809.05L-29.66 759.05zM56.94 809.05L100.25 834.05L100.25 884.05L56.94 909.05L13.64 884.05L13.64 834.05zM13.64 884.05L56.94 909.05L56.94 959.05L13.64 984.05L-29.66 959.05L-29.66 909.05zM56.94 959.05L100.25 984.05L100.25 1034.05L56.94 1059.05L13.64 1034.05L13.64 984.05zM13.64 1034.05L56.94 1059.05L56.94 1109.05L13.64 1134.05L-29.66 1109.05L-29.66 1059.05zM100.25 734.05L143.55 759.05L143.55 809.05L100.25 834.05L56.94 809.05L56.94 759.05zM100.25 884.05L143.55 909.05L143.55 959.05L100.25 984.05L56.94 959.05L56.94 909.05zM143.55 959.05L186.85 984.05L186.85 1034.05L143.55 1059.05L100.25 1034.05L100.25 984.05zM100.25 1034.05L143.55 1059.05L143.55 1109.05L100.25 1134.05L56.94 1109.05L56.94 1059.05zM230.15 209.05L273.45 234.05L273.45 284.05L230.15 309.05L186.85 284.05L186.85 234.05zM186.85 284.05L230.15 309.05L230.15 359.05L186.85 384.05L143.55 359.05L143.55 309.05zM230.15 359.05L273.45 384.05L273.45 434.05L230.15 459.05L186.85 434.05L186.85 384.05zM230.15 509.05L273.45 534.05L273.45 584.05L230.15 609.05L186.85 584.05L186.85 534.05zM186.85 584.05L230.15 609.05L230.15 659.05L186.85 684.05L143.55 659.05L143.55 609.05zM186.85 734.05L230.15 759.05L230.15 809.05L186.85 834.05L143.55 809.05L143.55 759.05zM186.85 1034.05L230.15 1059.05L230.15 1109.05L186.85 1134.05L143.55 1109.05L143.55 1059.05zM273.45 -15.95L316.76 9.05L316.76 59.05L273.45 84.05L230.15 59.05L230.15 9.05zM273.45 434.05L316.76 459.05L316.76 509.05L273.45 534.05L230.15 509.05L230.15 459.05zM316.76 509.05L360.06 534.05L360.06 584.05L316.76 609.05L273.45 584.05L273.45 534.05zM316.76 659.05L360.06 684.05L360.06 734.05L316.76 759.05L273.45 734.05L273.45 684.05zM273.45 734.05L316.76 759.05L316.76 809.05L273.45 834.05L230.15 809.05L230.15 759.05zM316.76 809.05L360.06 834.05L360.06 884.05L316.76 909.05L273.45 884.05L273.45 834.05zM273.45 884.05L316.76 909.05L316.76 959.05L273.45 984.05L230.15 959.05L230.15 909.05zM316.76 959.05L360.06 984.05L360.06 1034.05L316.76 1059.05L273.45 1034.05L273.45 984.05zM360.06 -15.95L403.36 9.05L403.36 59.05L360.06 84.05L316.76 59.05L316.76 9.05zM403.36 509.05L446.67 534.05L446.67 584.05L403.36 609.05L360.06 584.05L360.06 534.05zM360.06 584.05L403.36 609.05L403.36 659.05L360.06 684.05L316.76 659.05L316.76 609.05zM360.06 734.05L403.36 759.05L403.36 809.05L360.06 834.05L316.76 809.05L316.76 759.05zM360.06 1034.05L403.36 1059.05L403.36 1109.05L360.06 1134.05L316.76 1109.05L316.76 1059.05zM489.97 59.05L533.27 84.05L533.27 134.05L489.97 159.05L446.67 134.05L446.67 84.05zM446.67 134.05L489.97 159.05L489.97 209.05L446.67 234.05L403.36 209.05L403.36 159.05zM489.97 359.05L533.27 384.05L533.27 434.05L489.97 459.05L446.67 434.05L446.67 384.05zM446.67 434.05L489.97 459.05L489.97 509.05L446.67 534.05L403.36 509.05L403.36 459.05zM489.97 659.05L533.27 684.05L533.27 734.05L489.97 759.05L446.67 734.05L446.67 684.05zM446.67 734.05L489.97 759.05L489.97 809.05L446.67 834.05L403.36 809.05L403.36 759.05zM489.97 809.05L533.27 834.05L533.27 884.05L489.97 909.05L446.67 884.05L446.67 834.05zM489.97 959.05L533.27 984.05L533.27 1034.05L489.97 1059.05L446.67 1034.05L446.67 984.05zM533.27 734.05L576.57 759.05L576.57 809.05L533.27 834.05L489.97 809.05L489.97 759.05zM533.27 1034.05L576.57 1059.05L576.57 1109.05L533.27 1134.05L489.97 1109.05L489.97 1059.05zM619.88 -15.95L663.18 9.05L663.18 59.05L619.88 84.05L576.57 59.05L576.57 9.05zM663.18 59.05L706.48 84.05L706.48 134.05L663.18 159.05L619.88 134.05L619.88 84.05zM619.88 284.05L663.18 309.05L663.18 359.05L619.88 384.05L576.57 359.05L576.57 309.05zM663.18 359.05L706.48 384.05L706.48 434.05L663.18 459.05L619.88 434.05L619.88 384.05zM619.88 434.05L663.18 459.05L663.18 509.05L619.88 534.05L576.57 509.05L576.57 459.05zM663.18 509.05L706.48 534.05L706.48 584.05L663.18 609.05L619.88 584.05L619.88 534.05zM663.18 659.05L706.48 684.05L706.48 734.05L663.18 759.05L619.88 734.05L619.88 684.05zM619.88 734.05L663.18 759.05L663.18 809.05L619.88 834.05L576.57 809.05L576.57 759.05zM619.88 884.05L663.18 909.05L663.18 959.05L619.88 984.05L576.57 959.05L576.57 909.05zM663.18 959.05L706.48 984.05L706.48 1034.05L663.18 1059.05L619.88 1034.05L619.88 984.05zM706.48 134.05L749.78 159.05L749.78 209.05L706.48 234.05L663.18 209.05L663.18 159.05zM706.48 284.05L749.78 309.05L749.78 359.05L706.48 384.05L663.18 359.05L663.18 309.05zM749.78 359.05L793.09 384.05L793.09 434.05L749.78 459.05L706.48 434.05L706.48 384.05zM749.78 809.05L793.09 834.05L793.09 884.05L749.78 909.05L706.48 884.05L706.48 834.05zM706.48 884.05L749.78 909.05L749.78 959.05L706.48 984.05L663.18 959.05L663.18 909.05zM706.48 1034.05L749.78 1059.05L749.78 1109.05L706.48 1134.05L663.18 1109.05L663.18 1059.05zM793.09 -15.95L836.39 9.05L836.39 59.05L793.09 84.05L749.78 59.05L749.78 9.05zM836.39 59.05L879.69 84.05L879.69 134.05L836.39 159.05L793.09 134.05L793.09 84.05zM793.09 434.05L836.39 459.05L836.39 509.05L793.09 534.05L749.78 509.05L749.78 459.05zM836.39 509.05L879.69 534.05L879.69 584.05L836.39 609.05L793.09 584.05L793.09 534.05zM793.09 734.05L836.39 759.05L836.39 809.05L793.09 834.05L749.78 809.05L749.78 759.05zM836.39 809.05L879.69 834.05L879.69 884.05L836.39 909.05L793.09 884.05L793.09 834.05zM793.09 884.05L836.39 909.05L836.39 959.05L793.09 984.05L749.78 959.05L749.78 909.05zM879.69 -15.95L922.99 9.05L922.99 59.05L879.69 84.05L836.39 59.05L836.39 9.05zM879.69 134.05L922.99 159.05L922.99 209.05L879.69 234.05L836.39 209.05L836.39 159.05zM879.69 284.05L922.99 309.05L922.99 359.05L879.69 384.05L836.39 359.05L836.39 309.05zM879.69 434.05L922.99 459.05L922.99 509.05L879.69 534.05L836.39 509.05L836.39 459.05zM922.99 509.05L966.3 534.05L966.3 584.05L922.99 609.05L879.69 584.05L879.69 534.05zM922.99 959.05L966.3 984.05L966.3 1034.05L922.99 1059.05L879.69 1034.05L879.69 984.05zM966.3 -15.95L1009.6 9.05L1009.6 59.05L966.3 84.05L922.99 59.05L922.99 9.05zM1009.6 59.05L1052.9 84.05L1052.9 134.05L1009.6 159.05L966.3 134.05L966.3 84.05zM966.3 284.05L1009.6 309.05L1009.6 359.05L966.3 384.05L922.99 359.05L922.99 309.05zM1009.6 359.05L1052.9 384.05L1052.9 434.05L1009.6 459.05L966.3 434.05L966.3 384.05zM966.3 434.05L1009.6 459.05L1009.6 509.05L966.3 534.05L922.99 509.05L922.99 459.05zM1009.6 509.05L1052.9 534.05L1052.9 584.05L1009.6 609.05L966.3 584.05L966.3 534.05zM1009.6 659.05L1052.9 684.05L1052.9 734.05L1009.6 759.05L966.3 734.05L966.3 684.05zM966.3 734.05L1009.6 759.05L1009.6 809.05L966.3 834.05L922.99 809.05L922.99 759.05zM966.3 884.05L1009.6 909.05L1009.6 959.05L966.3 984.05L922.99 959.05L922.99 909.05zM1009.6 959.05L1052.9 984.05L1052.9 1034.05L1009.6 1059.05L966.3 1034.05L966.3 984.05zM966.3 1034.05L1009.6 1059.05L1009.6 1109.05L966.3 1134.05L922.99 1109.05L922.99 1059.05zM1096.2 59.05L1139.51 84.05L1139.51 134.05L1096.2 159.05L1052.9 134.05L1052.9 84.05zM1052.9 134.05L1096.2 159.05L1096.2 209.05L1052.9 234.05L1009.6 209.05L1009.6 159.05zM1052.9 284.05L1096.2 309.05L1096.2 359.05L1052.9 384.05L1009.6 359.05L1009.6 309.05zM1096.2 359.05L1139.51 384.05L1139.51 434.05L1096.2 459.05L1052.9 434.05L1052.9 384.05zM1052.9 434.05L1096.2 459.05L1096.2 509.05L1052.9 534.05L1009.6 509.05L1009.6 459.05zM1096.2 659.05L1139.51 684.05L1139.51 734.05L1096.2 759.05L1052.9 734.05L1052.9 684.05zM1052.9 884.05L1096.2 909.05L1096.2 959.05L1052.9 984.05L1009.6 959.05L1009.6 909.05zM1096.2 959.05L1139.51 984.05L1139.51 1034.05L1096.2 1059.05L1052.9 1034.05L1052.9 984.05zM1139.51 -15.95L1182.81 9.05L1182.81 59.05L1139.51 84.05L1096.2 59.05L1096.2 9.05zM1139.51 134.05L1182.81 159.05L1182.81 209.05L1139.51 234.05L1096.2 209.05L1096.2 159.05zM1139.51 284.05L1182.81 309.05L1182.81 359.05L1139.51 384.05L1096.2 359.05L1096.2 309.05zM1182.81 509.05L1226.11 534.05L1226.11 584.05L1182.81 609.05L1139.51 584.05L1139.51 534.05zM1139.51 584.05L1182.81 609.05L1182.81 659.05L1139.51 684.05L1096.2 659.05L1096.2 609.05zM1182.81 659.05L1226.11 684.05L1226.11 734.05L1182.81 759.05L1139.51 734.05L1139.51 684.05zM1139.51 734.05L1182.81 759.05L1182.81 809.05L1139.51 834.05L1096.2 809.05L1096.2 759.05zM1139.51 884.05L1182.81 909.05L1182.81 959.05L1139.51 984.05L1096.2 959.05L1096.2 909.05zM1139.51 1034.05L1182.81 1059.05L1182.81 1109.05L1139.51 1134.05L1096.2 1109.05L1096.2 1059.05zM1269.41 59.05L1312.72 84.05L1312.72 134.05L1269.41 159.05L1226.11 134.05L1226.11 84.05zM1269.41 509.05L1312.72 534.05L1312.72 584.05L1269.41 609.05L1226.11 584.05L1226.11 534.05zM1269.41 659.05L1312.72 684.05L1312.72 734.05L1269.41 759.05L1226.11 734.05L1226.11 684.05zM1226.11 884.05L1269.41 909.05L1269.41 959.05L1226.11 984.05L1182.81 959.05L1182.81 909.05zM1269.41 959.05L1312.72 984.05L1312.72 1034.05L1269.41 1059.05L1226.11 1034.05L1226.11 984.05zM1226.11 1034.05L1269.41 1059.05L1269.41 1109.05L1226.11 1134.05L1182.81 1109.05L1182.81 1059.05zM1312.72 -15.95L1356.02 9.05L1356.02 59.05L1312.72 84.05L1269.41 59.05L1269.41 9.05zM1356.02 59.05L1399.32 84.05L1399.32 134.05L1356.02 159.05L1312.72 134.05L1312.72 84.05zM1356.02 209.05L1399.32 234.05L1399.32 284.05L1356.02 309.05L1312.72 284.05L1312.72 234.05zM1312.72 284.05L1356.02 309.05L1356.02 359.05L1312.72 384.05L1269.41 359.05L1269.41 309.05zM1312.72 434.05L1356.02 459.05L1356.02 509.05L1312.72 534.05L1269.41 509.05L1269.41 459.05zM1356.02 659.05L1399.32 684.05L1399.32 734.05L1356.02 759.05L1312.72 734.05L1312.72 684.05zM1356.02 959.05L1399.32 984.05L1399.32 1034.05L1356.02 1059.05L1312.72 1034.05L1312.72 984.05zM1399.32 -15.95L1442.62 9.05L1442.62 59.05L1399.32 84.05L1356.02 59.05L1356.02 9.05zM1399.32 134.05L1442.62 159.05L1442.62 209.05L1399.32 234.05L1356.02 209.05L1356.02 159.05zM1442.62 209.05L1485.93 234.05L1485.93 284.05L1442.62 309.05L1399.32 284.05L1399.32 234.05zM1442.62 359.05L1485.93 384.05L1485.93 434.05L1442.62 459.05L1399.32 434.05L1399.32 384.05zM1399.32 434.05L1442.62 459.05L1442.62 509.05L1399.32 534.05L1356.02 509.05L1356.02 459.05zM1442.62 509.05L1485.93 534.05L1485.93 584.05L1442.62 609.05L1399.32 584.05L1399.32 534.05zM1399.32 584.05L1442.62 609.05L1442.62 659.05L1399.32 684.05L1356.02 659.05L1356.02 609.05zM1442.62 659.05L1485.93 684.05L1485.93 734.05L1442.62 759.05L1399.32 734.05L1399.32 684.05zM1442.62 959.05L1485.93 984.05L1485.93 1034.05L1442.62 1059.05L1399.32 1034.05L1399.32 984.05zM1529.23 59.05L1572.53 84.05L1572.53 134.05L1529.23 159.05L1485.93 134.05L1485.93 84.05zM1485.93 134.05L1529.23 159.05L1529.23 209.05L1485.93 234.05L1442.62 209.05L1442.62 159.05zM1485.93 284.05L1529.23 309.05L1529.23 359.05L1485.93 384.05L1442.62 359.05L1442.62 309.05zM1529.23 359.05L1572.53 384.05L1572.53 434.05L1529.23 459.05L1485.93 434.05L1485.93 384.05zM1529.23 509.05L1572.53 534.05L1572.53 584.05L1529.23 609.05L1485.93 584.05L1485.93 534.05zM1485.93 584.05L1529.23 609.05L1529.23 659.05L1485.93 684.05L1442.62 659.05L1442.62 609.05zM1529.23 659.05L1572.53 684.05L1572.53 734.05L1529.23 759.05L1485.93 734.05L1485.93 684.05zM1529.23 809.05L1572.53 834.05L1572.53 884.05L1529.23 909.05L1485.93 884.05L1485.93 834.05zM1485.93 884.05L1529.23 909.05L1529.23 959.05L1485.93 984.05L1442.62 959.05L1442.62 909.05zM1529.23 959.05L1572.53 984.05L1572.53 1034.05L1529.23 1059.05L1485.93 1034.05L1485.93 984.05zM1485.93 1034.05L1529.23 1059.05L1529.23 1109.05L1485.93 1134.05L1442.62 1109.05L1442.62 1059.05zM1572.53 284.05L1615.83 309.05L1615.83 359.05L1572.53 384.05L1529.23 359.05L1529.23 309.05zM1615.83 359.05L1659.14 384.05L1659.14 434.05L1615.83 459.05L1572.53 434.05L1572.53 384.05zM1572.53 434.05L1615.83 459.05L1615.83 509.05L1572.53 534.05L1529.23 509.05L1529.23 459.05zM1572.53 584.05L1615.83 609.05L1615.83 659.05L1572.53 684.05L1529.23 659.05L1529.23 609.05zM1615.83 659.05L1659.14 684.05L1659.14 734.05L1615.83 759.05L1572.53 734.05L1572.53 684.05zM1572.53 734.05L1615.83 759.05L1615.83 809.05L1572.53 834.05L1529.23 809.05L1529.23 759.05zM1615.83 809.05L1659.14 834.05L1659.14 884.05L1615.83 909.05L1572.53 884.05L1572.53 834.05zM1659.14 -15.95L1702.44 9.05L1702.44 59.05L1659.14 84.05L1615.83 59.05L1615.83 9.05zM1659.14 134.05L1702.44 159.05L1702.44 209.05L1659.14 234.05L1615.83 209.05L1615.83 159.05zM1702.44 209.05L1745.74 234.05L1745.74 284.05L1702.44 309.05L1659.14 284.05L1659.14 234.05zM1702.44 659.05L1745.74 684.05L1745.74 734.05L1702.44 759.05L1659.14 734.05L1659.14 684.05zM1659.14 734.05L1702.44 759.05L1702.44 809.05L1659.14 834.05L1615.83 809.05L1615.83 759.05zM1702.44 809.05L1745.74 834.05L1745.74 884.05L1702.44 909.05L1659.14 884.05L1659.14 834.05zM1659.14 884.05L1702.44 909.05L1702.44 959.05L1659.14 984.05L1615.83 959.05L1615.83 909.05zM1659.14 1034.05L1702.44 1059.05L1702.44 1109.05L1659.14 1134.05L1615.83 1109.05L1615.83 1059.05zM1745.74 -15.95L1789.04 9.05L1789.04 59.05L1745.74 84.05L1702.44 59.05L1702.44 9.05zM1745.74 284.05L1789.04 309.05L1789.04 359.05L1745.74 384.05L1702.44 359.05L1702.44 309.05zM1745.74 434.05L1789.04 459.05L1789.04 509.05L1745.74 534.05L1702.44 509.05L1702.44 459.05zM1789.04 509.05L1832.35 534.05L1832.35 584.05L1789.04 609.05L1745.74 584.05L1745.74 534.05zM1745.74 584.05L1789.04 609.05L1789.04 659.05L1745.74 684.05L1702.44 659.05L1702.44 609.05zM1745.74 734.05L1789.04 759.05L1789.04 809.05L1745.74 834.05L1702.44 809.05L1702.44 759.05zM1789.04 809.05L1832.35 834.05L1832.35 884.05L1789.04 909.05L1745.74 884.05L1745.74 834.05zM1745.74 884.05L1789.04 909.05L1789.04 959.05L1745.74 984.05L1702.44 959.05L1702.44 909.05zM1832.35 -15.95L1875.65 9.05L1875.65 59.05L1832.35 84.05L1789.04 59.05L1789.04 9.05zM1832.35 134.05L1875.65 159.05L1875.65 209.05L1832.35 234.05L1789.04 209.05L1789.04 159.05zM1875.65 209.05L1918.95 234.05L1918.95 284.05L1875.65 309.05L1832.35 284.05L1832.35 234.05zM1832.35 434.05L1875.65 459.05L1875.65 509.05L1832.35 534.05L1789.04 509.05L1789.04 459.05zM1875.65 659.05L1918.95 684.05L1918.95 734.05L1875.65 759.05L1832.35 734.05L1832.35 684.05zM1918.95 -15.95L1962.25 9.05L1962.25 59.05L1918.95 84.05L1875.65 59.05L1875.65 9.05zM1918.95 134.05L1962.25 159.05L1962.25 209.05L1918.95 234.05L1875.65 209.05L1875.65 159.05zM1962.25 209.05L2005.56 234.05L2005.56 284.05L1962.25 309.05L1918.95 284.05L1918.95 234.05zM1918.95 434.05L1962.25 459.05L1962.25 509.05L1918.95 534.05L1875.65 509.05L1875.65 459.05zM1962.25 809.05L2005.56 834.05L2005.56 884.05L1962.25 909.05L1918.95 884.05L1918.95 834.05zM1962.25 959.05L2005.56 984.05L2005.56 1034.05L1962.25 1059.05L1918.95 1034.05L1918.95 984.05z" stroke="rgba(54, 134, 216, 0.93)" stroke-width="2"></path></g><defs><mask id="SvgjsMask1244"><rect width="1920" height="1080" fill="#ffffff"></rect></mask></defs></svg>